
<svg xmlns="http://www.w3.org/2000/svg" xmlns:xlink="http://www.w3.org/1999/xlink" viewBox="0 0 120 120"  xml:space="preserve">

<g>
	<path  d="M56.7,27.1c4.2-0.2,6.3,2.3,5.6,6.5c-0.7,4.1-3.1,7.3-6.6,8.9c-4.8,2.3-10,3.8-15.1,5.6
		c-0.6,0.2-1.3,0.3-2,0.5c0.2,1.9,0.4,3.6,0.7,5.3c0,0.2,0,0.5,0,0.7c0.1,0.7,0.7,1.3,1.3,1.6c0.5,0.3,1,0.5,1.5,0.8
		c9.5,6.7,17.6,15.6,24,26.4c1.1,1.8,3.8,0.1,2.7-1.6c-1.2-2-12.7-18-17.2-21.3c-3.1-2.8-6.5-5.4-10-7.7c-0.1-0.1-0.2-0.1-0.4-0.2
		c3.7,0,7-1.6,9.4-4.2c0,0.1,0.1,0.1,0.1,0.2c2.2,2.6,5.4,4.1,8.8,4.4c0.3,0,0.6,0,0.9,0c3.3,0,6.5-1.3,8.8-3.5c2.2,3,5.6,5,9.5,5.3
		c0.3,0,0.6,0,0.9,0c3.2,0,6.2-1.2,8.5-3.2c0,0,0,0.1,0.1,0.1c2,3.2,5.3,4.9,9.3,4.9c4,0,8.3-1.8,11.4-4.7c0.4,8,0.8,16,0.7,19.7
		c-0.3,9.7-4.3,16.7-10.8,21.9c0.5,7.9,1,16.8,1.5,25.8c-9.3-6.2-20.4-9.8-32.4-9.8c-11,0-21.3,3-30.1,8.3c0.2-7,0.3-14,0.5-21
		c0-2-12.2-11-16.7-15C13,74.4,7.3,65.3,10.8,52.6c1.4-5.2,1.8-10.6,2.8-15.9c1.1-5.8,3.6-7.9,9.5-8.1
		C34.3,28.1,45.5,27.6,56.7,27.1L56.7,27.1z M44.2,0.4c5.3,0.4,9.3,5,8.9,10.3l0.1-0.9c0.4-5.3,5-9.3,10.3-8.9
		c5.3,0.4,9.3,5,8.9,10.3l-0.3,3.7c0,0,0-0.3,0-0.3c0.4-5.3,5-9.3,10.3-8.9c5.3,0.4,9.3,5,8.9,10.3l-0.3,4.4c0.1-1.2,1-2.5,1-2.5
		c1.6-3,4.8-5.1,8.5-5.1c5.3,0,9.6,4.3,9.6,9.6v20.8c0,8.1-14.2,14.8-19.1,7c-1.6-2.6-1.6-7.8-1.6-7.8l0,0.5
		c-0.4,5.3-5,9.3-10.3,8.9c-4.4-0.3-7.9-3.5-8.7-7.7l-0.9-0.1C68,47.8,64.2,50.3,60,50c-2.5-0.2-4.8-1.3-6.4-3.1
		c1.2-0.5,2.3-1,3.5-1.5c4.4-2.1,7.5-6.2,8.4-11.3c0.7-3.8-0.5-6.2-1.6-7.5c-1.1-1.3-3.1-2.8-6.7-2.8c-0.2,0-0.4,0-0.6,0
		c-4.6,0.2-9.1,0.4-13.7,0.6c-3.4,0.1-6.7,0.3-10.1,0.4l1.1-15.6C34.3,4,38.9,0,44.2,0.4L44.2,0.4z" fill-rule="evenodd" clip-rule="evenodd"/>
</g>
</svg>
