
<svg xmlns="http://www.w3.org/2000/svg" xmlns:xlink="http://www.w3.org/1999/xlink" viewBox="0 0 120 120" xml:space="preserve">

<g>
	<path  d="M60,85.14l53.99,34.32H6.01L60,85.14L60,85.14z M119.89,54.09v64.38L75.09,90L119.89,54.09L119.89,54.09z
		 M0.11,54.09l44.8,35.9l-44.8,28.47V54.09L0.11,54.09z M104.58,36.52L120,48.88l-15.42,12.36V36.52L104.58,36.52z M15.42,36.52
		v24.73L0,48.88L15.42,36.52L15.42,36.52z M67.56,36.06v11.65c-0.66,1.76-4.51,11.17-12.05,11.17c-5.29,0-7.17-3.7-7.17-7.16
		C48.34,48.12,51.41,37.14,67.56,36.06L67.56,36.06z M62.25,19.34c-19.13,0-30.97,14.78-30.97,30.18
		c0,13.29,11.58,32.16,41.15,22.77l0,0l-1.5-3.71c-22.46,7.81-35.66-4.99-35.66-19.06c0-14.93,11.6-26.18,26.98-26.18
		c12.48,0,21.54,8.2,21.54,19.51c0,11.02-8.25,13.99-12.23,14.78l0-25.63c-22.98-0.65-27.21,14.93-27.21,19.72
		c0,6.68,4.49,11.16,11.17,11.16c5.55,0,9.48-3.38,12.05-6.85V62c0,0,20.21,0.03,20.21-19.15C87.78,29.22,77.04,19.34,62.25,19.34
		L62.25,19.34z M19.42,12.49h81.16v51.95L71.53,87.73L60,80.4l-11.53,7.33L19.42,64.44V12.49L19.42,12.49z M60,0.54l9.61,7.95H50.39
		L60,0.54L60,0.54z" fill-rule="evenodd" clip-rule="evenodd"/>
</g>
</svg>
