
<svg xmlns="http://www.w3.org/2000/svg" xmlns:xlink="http://www.w3.org/1999/xlink" viewBox="0 0 120 120"  xml:space="preserve">
<style type="text/css">

</style>
<g>
	<path  d="M60.6,0c5.3,0.2,10.5,1.9,14.9,4.9c8.8,6,13,16.4,13,26.8c0,1.8-0.1,3.5-0.3,5.2c3.4,6.7,6,12.7,7.2,16.4
		c2.5,8-6,13.6-15.9,16.9c22.9,17,38.1-3.1,38.1,39.1c0,4.4-2,10.3-11.3,10.6h-0.3H14.1h-0.3c-9.4-0.4-11.3-6.2-11.3-10.6
		c0-42.2,15.3-22.1,38.1-39.1c-9.9-3.3-18.4-8.9-15.9-16.9c1.2-3.8,3.8-9.8,7.2-16.4c-0.2-1.7-0.3-3.4-0.3-5.2
		c0-10.8,4.4-22,13.9-27.9C50,1,55.3-0.2,60.6,0L60.6,0z M41.9,69.6L26.7,91.4h16.6l16.6,22.5l16.6-22.5h16.6L77.9,69.6l-18,43
		L41.9,69.6L41.9,69.6L41.9,69.6z" fill-rule="evenodd" clip-rule="evenodd"/>
</g>
</svg>
