
<svg xmlns="http://www.w3.org/2000/svg" xmlns:xlink="http://www.w3.org/1999/xlink" viewBox="0 0 120 120"  xml:space="preserve">

<g>
	<path  d="M68.1,109.5L68,110l0.1-0.2L68.1,109.5L68.1,109.5L68.1,109.5z M43.2,68.5c-1.4,0.9-3.2,2.1-3.9,2.6
		c-0.7,2-3,5.5-4.2,7.3l-0.2,0.3c-0.2,0.1-0.3,0.3-0.4,0.5c-0.4,0.5-0.8,1-1,1.6c1.2,1.2,4.1,3.4,5.2,3.7l4.8,1.5l-5.1,0.4
		c-2.1,0.2-4.3,1-6.4,2.2c-2.4,1.5-2.4,1.9-1.5,4.5c1.6,4.4,7.3,12,10.5,15.9c1.4,1.6,2.9,3.1,4.3,4.5l4.9,4.3
		c0.1,0,0.2,0.1,0.2,0.1c0.3,0.1,0.6,0.3,0.8,0.6h2.9c-0.2-0.3-0.3-0.6-0.4-0.9c-0.2-0.5-0.3-0.7-0.4-0.9c-1.1-2.8-1.9-5.7-2.6-8.4
		c-1.2-2.9-2.1-6-3-9l-0.1-0.3c-1.9-6.4-3.8-14-4.4-22.1v0v0C43.3,74.3,43.2,71.4,43.2,68.5L43.2,68.5z M76.7,68.5
		c0.1,2.4,0.2,6.2,0.1,7.2L76.3,82c-0.6,4.7-1.7,9.7-3.3,15.2l-2.4,7.7c-0.2,0.5-0.4,1-0.6,1.5c-0.3,0.9-0.7,1.9-0.9,2.8
		c-0.1,0.7-0.3,1.4-0.5,2l-0.2,0.4l-2.1,6.1l-0.5,1l2.9,0c0.2-0.1,0.3-0.2,0.4-0.3c0.1,0,0.1,0,0.2-0.1l3.4-3
		c5.7-5.4,10.3-11,14-17.1c1.1-1.7,2.2-3.6,2.8-5.7c0.8-2.6,0.1-3.3-3-4.7c-1.8-0.8-3.6-1.3-5.2-1.4l-4.6-0.4l4.3-1.5
		c1.9-0.6,4.1-2.4,5.3-3.4c-0.4-0.6-0.7-1.2-1.1-1.9c-0.3-0.4-0.5-0.7-0.7-1.1l-2-3.6c-0.1-0.1-0.2-0.3-0.3-0.5
		c-0.6-1-1.1-1.8-1.3-2.5L76.7,68.5L76.7,68.5L76.7,68.5z M75.7,66.6l6.3,4.3l4,1.9l16.8,7.5c2.9,1.3,6.1,2.4,8.6,4.5
		c4.4,3.8,5.5,9.9,6.2,15.4l1.1,9c0.4,3.5,1,7.1,1.1,10.8L0.3,119.9c0-1.5,0.2-2.9,0.3-4.4l1.7-14.4C3,95.3,3.7,88.9,8.5,84.9
		c1.6-1.3,3.5-2.2,5.4-3.1l18.3-8.2l6.1-2.9c0.1,0,5.1-3.4,5.8-3.9c0,3.5,0,7,0.1,10.5c0.1,0.9,0.2,1.8,0.3,2.8
		c0.2,1.8,0.5,3.7,0.8,5.5c0.4,1.8,0.7,3.7,1.2,5.5c0.7,2.7,1.4,5.4,2.2,8.1c0.3,0.7,0.5,1.5,0.7,2.3c0.2,0.6,0.4,1.3,0.6,2l0.6,1.9
		c0.4,1,0.8,2,1.2,3c0,0,0,0,0,0l0.1-1.1l0.5-3.1c0.4-2.4,3.7-18.8,3.1-19.8c-0.6-0.1-1.5-0.6-2-0.9c-2.1-1.2-1.4-2.5,0.1-3.9
		l4.6-4.2c0.4-0.3,1-0.7,1.2-1.1l0.1-0.2c0.4,0,0.7-0.1,1-0.1l0.1,0c0.5,0.6,1.1,1.1,1.7,1.6l2.9,2.8c1.2,1.1,3.3,2.4,2.6,4.3
		l-0.1,0.1c-0.2,0.4-0.5,0.6-0.8,0.7l-1.7,0.5l-0.6,0.2c-0.4,1.4,1.2,9.1,1.5,10.9l2.1,12.7c0,0.2,0,0.4,0,0.6l0.1,0.5l0.7-2.1
		c0.3-0.8,0.5-1.5,0.8-2.2L72,97c1.5-4.9,2.7-10,3.3-15.1l0.5-6.3C75.9,74.3,75.7,66.6,75.7,66.6L75.7,66.6z M78.8,40.7L78.8,40.7
		l0.1,0.1L78.8,40.7L78.8,40.7L78.8,40.7z M61.1,0C62,0,62.9,0,63.8,0C71.1,0.5,77,4.2,81,10.2c2.9,4.3,3.4,7.7,2.8,12.7
		c-0.3,2.7-0.8,5.4-1.9,7.9l-0.5,1.1l0.8,0.1c0.9,0.2,1.6,0.8,2,1.7l0.1,0.1c0.2,0.5,0.3,1.1,0.3,1.6c0.2,3.7-0.8,8.2-4.5,9.3
		L78.4,45l0,0.1c0,0.1,0,0.2,0,0.2c-0.2,0.7-0.3,1.6-0.3,2.4c0,3.6-0.9,6.4-3.5,8.8c-0.2,0.2-0.7,0.7-1.1,1.2c0,0,0,0,0,0l0.3,1.1
		c0.2,1.2,0.1,2.5,0.1,3.7c-0.1,1.4,0.1,1.5-1.1,2.3l-2.4,1.5c-1.8,1.1-3.4,2.5-5,3.9l-4.8,3.6c-0.4,0-0.7,0-1,0.1l-7.9-6.2
		c-1.4-1.1-4.3-2.5-5.2-4l-0.1-0.1c-0.3-0.4-0.2-1.3-0.2-1.8c0-0.9,0-1.8,0.1-2.6c0-0.3,0-0.6,0-0.9l0.1-0.6l-0.7-0.7
		c-0.2-0.2-0.4-0.4-0.5-0.5c-2.7-2.4-3.5-5.2-3.5-8.8c0-0.7-0.2-1.7-0.3-2.4c0,0,0,0,0,0L39.7,45c-3.6-1.3-4.7-6.2-4.5-9.7
		c0.1-1.8,0.7-2.4,1.9-2.9l1.3-0.5l0,0c-1.8-4.1-2.7-10.8-2.4-15.3c0.3-3.3,1.7-5.8,5.2-6.7c1.2-0.3,1.3-0.2,2.1-1.2
		C47.3,3.6,54.5,0.4,61.1,0L61.1,0z" fill-rule="evenodd" clip-rule="evenodd"/>
</g>
</svg>
