
<svg xmlns="http://www.w3.org/2000/svg" xmlns:xlink="http://www.w3.org/1999/xlink" viewBox="0 0 120 120"  xml:space="preserve">

<g>
	<path  d="M60,42.37c1.4,0,2.54,1.13,2.54,2.53v4.83l1.59,0.49c2.54,1.07,4.57,3.1,5.64,5.64l0.5,1.6h4.75
		c1.4,0,2.54,1.13,2.54,2.53c0,1.4-1.13,2.53-2.54,2.53h-4.75l-0.49,1.59c-1.07,2.54-3.11,4.57-5.64,5.64l-1.59,0.49v5.7
		c0,1.4-1.13,2.53-2.54,2.53c-1.4,0-2.53-1.13-2.54-2.53v-5.7l-1.59-0.49c-2.54-1.07-4.57-3.1-5.64-5.64l-0.49-1.59h-4.24
		c-1.4,0-2.54-1.13-2.54-2.53c0-1.4,1.13-2.53,2.54-2.53h4.24l0.5-1.6c1.07-2.54,3.11-4.57,5.64-5.64l1.59-0.49V44.9
		C57.46,43.5,58.6,42.37,60,42.37L60,42.37z M57.46,29.03l-0.45,0.02c-14.73,1.4-26.47,13.07-27.97,27.77l-0.03,0.65h3.09
		c1.4,0,2.54,1.13,2.54,2.53s-1.13,2.53-2.54,2.53h-3.09l0.03,0.65c1.49,14.7,13.23,26.37,27.97,27.77l0.45,0.02v-3.03
		c0-1.4,1.13-2.53,2.54-2.53c1.4,0,2.54,1.13,2.54,2.53v3.03l0.45-0.02c14.74-1.4,26.47-13.07,27.97-27.77l0.03-0.65H87.9
		c-1.4,0-2.54-1.13-2.54-2.53s1.13-2.53,2.54-2.53h3.08l-0.03-0.65c-1.49-14.7-13.23-26.37-27.97-27.77l-0.45-0.02v4.42
		c0,1.4-1.13,2.53-2.54,2.53c-1.4,0-2.54-1.13-2.54-2.53V29.03z M60,19.55c1.4,0,2.54,1.13,2.54,2.53v1.87L63.46,24
		c17.11,1.63,30.78,15.23,32.52,32.3l0.06,1.16h3.21c1.4,0,2.54,1.13,2.54,2.53s-1.13,2.53-2.54,2.53h-3.21l-0.06,1.15
		c-1.74,17.07-15.41,30.67-32.52,32.3l-0.93,0.04v3.27c0,1.4-1.13,2.53-2.54,2.53c-1.4,0-2.54-1.13-2.54-2.53v-3.27l-0.93-0.04
		c-17.11-1.63-30.78-15.23-32.52-32.3l-0.06-1.15h-3.21c-1.4,0-2.54-1.13-2.54-2.53s1.13-2.53,2.54-2.53h3.21l0.06-1.16
		C25.75,39.23,39.42,25.64,56.53,24l0.93-0.04v-1.87C57.46,20.69,58.6,19.55,60,19.55L60,19.55z M60,13.71
		c-25.58,0-46.32,20.72-46.32,46.29c0,25.57,20.73,46.29,46.32,46.29c25.58,0,46.32-20.72,46.32-46.29
		C106.31,34.43,85.58,13.71,60,13.71L60,13.71z M60,0.92c1.4,0,2.54,1.13,2.54,2.53v5.31l2.39,0.11
		c24.31,2.32,43.73,21.63,46.2,45.88l0.14,2.71h6.21c1.4,0,2.54,1.13,2.54,2.53c0,1.4-1.13,2.53-2.54,2.53h-6.21l-0.14,2.71
		c-2.47,24.25-21.89,43.56-46.2,45.88l-2.39,0.11v5.31c0,1.4-1.13,2.53-2.54,2.53c-1.4,0-2.54-1.13-2.54-2.53v-5.31l-2.39-0.11
		c-24.31-2.32-43.73-21.63-46.2-45.88l-0.14-2.71h-6.2C1.13,62.54,0,61.4,0,60c0-1.4,1.13-2.53,2.54-2.53h6.2l0.14-2.71
		c2.47-24.25,21.89-43.56,46.2-45.88l2.39-0.11V3.45C57.46,2.05,58.6,0.92,60,0.92L60,0.92z" fill-rule="evenodd" clip-rule="evenodd"/>
</g>
</svg>
