
<svg xmlns="http://www.w3.org/2000/svg" xmlns:xlink="http://www.w3.org/1999/xlink" viewBox="0 0 120 120"  xml:space="preserve">

<g>
	<path  d="M60,95.51c-2.26,0-4.09,1.83-4.09,4.08v8.7l-1.82-1.21c-1.88-1.25-4.42-0.74-5.68,1.13
		c-1.25,1.87-0.75,4.41,1.13,5.66l8.19,5.44l0.25,0.07l0.43,0.29l1.59,0.32l0.01,0l0,0h0c0.57,0,1.1-0.11,1.59-0.32l0.43-0.29
		l0.24-0.07l8.19-5.44c1.88-1.25,2.39-3.78,1.14-5.66c-1.25-1.88-3.8-2.38-5.68-1.13l-1.82,1.21v-8.7
		C64.09,97.34,62.26,95.51,60,95.51L60,95.51z M70.91,66.76c3.77,0,6.82,3.05,6.82,6.8V85.8H42.26V73.56c0-3.76,3.05-6.8,6.82-6.8
		H70.91z M109.43,55.95c-0.52,0.1-1.03,0.3-1.5,0.61c-1.88,1.25-2.39,3.78-1.13,5.66l1.22,1.82h-8.73c-2.26,0-4.09,1.83-4.09,4.08
		c0,2.25,1.83,4.08,4.09,4.08h8.72l-1.21,1.82c-1.25,1.88-0.75,4.41,1.13,5.66c1.88,1.25,4.42,0.74,5.68-1.13l5.46-8.16l0.07-0.24
		l0.29-0.43c0.21-0.49,0.32-1.03,0.32-1.59c0-0.56-0.11-1.1-0.32-1.59l-0.29-0.43l-0.07-0.24l-5.46-8.16
		C112.66,56.29,111,55.65,109.43,55.95L109.43,55.95z M10.57,55.95C9,55.65,7.34,56.29,6.4,57.69l-5.46,8.16L0.86,66.1l-0.29,0.43
		c-0.21,0.49-0.32,1.02-0.32,1.59c0,0.56,0.11,1.1,0.32,1.59l0.29,0.43l0.07,0.24l5.46,8.16c1.25,1.88,3.8,2.38,5.68,1.13
		c1.88-1.25,2.39-3.78,1.13-5.66l-1.21-1.82h8.72c2.26,0,4.09-1.83,4.09-4.08c0-2.25-1.83-4.08-4.09-4.08h-8.73l1.22-1.82
		c1.25-1.88,0.75-4.41-1.13-5.66C11.6,56.25,11.09,56.05,10.57,55.95L10.57,55.95z M60,28.55c-9.8,0-17.74,7.92-17.74,17.68
		c0,4.88,1.99,9.3,5.2,12.5l0.18,0.15l-4.4,0.88c-5.39,2.27-9.17,7.59-9.17,13.79v16.32c0,2.25,1.83,4.08,4.09,4.08h43.66
		c2.26,0,4.09-1.83,4.09-4.08l0-16.32c0-6.2-3.78-11.52-9.17-13.79l-4.39-0.88l0.18-0.15c3.21-3.2,5.2-7.62,5.2-12.5
		C77.74,36.47,69.8,28.55,60,28.55L60,28.55z M60,0L60,0l-1.59,0.32l-0.43,0.29l-0.25,0.07l-8.19,5.44
		c-1.88,1.25-2.39,3.78-1.13,5.66c1.25,1.88,3.8,2.38,5.68,1.13l1.82-1.21v8.7c0,2.25,1.83,4.08,4.09,4.08
		c2.26,0,4.09-1.83,4.09-4.08v-8.7l1.82,1.21c1.88,1.25,4.42,0.74,5.68-1.13c1.25-1.87,0.75-4.41-1.14-5.66l-8.19-5.44l-0.24-0.07
		l-0.44-0.29C61.1,0.11,60.57,0,60,0L60,0L60,0L60,0z" fill-rule="evenodd" clip-rule="evenodd"/>
</g>
</svg>
