
<svg xmlns="http://www.w3.org/2000/svg" xmlns:xlink="http://www.w3.org/1999/xlink" viewBox="0 0 120 120" xml:space="preserve">

<g>
	<path class="st0" d="M27.02,0c2.84,0,5.42,1.84,6.3,4.59l9.16,28.3c0.98,3.04,0.07,6.34-2.33,8.43l-6.99,6.1
		c-1.82,1.58-2.19,4.32-0.88,6.34c4.46,6.83,9.57,13.16,15.18,18.76c5.61,5.62,11.92,10.71,18.76,15.17
		c2.02,1.33,4.74,0.95,6.34-0.88l6.1-6.99c2.1-2.4,5.41-3.3,8.43-2.33l28.32,9.16l0,0c3.01,0.97,4.91,3.95,4.53,7.09l-1.44,12.24
		c-0.31,2.64-1.69,5.07-3.78,6.66c-13.26,10.08-29.31,7.95-40.45,4.39c-14.58-4.67-29.99-14.6-43.36-27.97
		C17.55,75.72,7.62,60.32,2.95,45.73C-0.61,34.59-2.73,18.54,7.34,5.27c1.6-2.09,4.02-3.47,6.66-3.78l12.24-1.44
		C26.51,0.01,26.77,0,27.02,0L27.02,0z" fill-rule="evenodd" clip-rule="evenodd"/>
</g>
</svg>
