
<svg xmlns="http://www.w3.org/2000/svg" xmlns:xlink="http://www.w3.org/1999/xlink" 
	 viewBox="0 0 120 120"  xml:space="preserve">

<g>
	<path  d="M49,97.2h22.7V120H49V97.2L49,97.2z M59.8,0c13,0,23.4,3.4,31.1,10.3c7.7,6.8,11.5,14.8,11.5,23.9
		c0,5-1.4,9.8-4.2,14.3c-2.8,4.5-8.9,10.6-18.1,18.3c-4.8,4-7.8,7.2-8.9,9.6c-1.2,2.4-1.7,6.8-1.6,13H49c-0.1-3-0.1-4.8-0.1-5.4
		c0-6.7,1.1-12.2,3.3-16.5c2.2-4.3,6.6-9.2,13.2-14.6c6.6-5.4,10.6-8.9,11.9-10.6c2-2.6,3-5.6,3-8.8c0-4.4-1.8-8.2-5.3-11.4
		c-3.5-3.2-8.3-4.7-14.3-4.7c-5.8,0-10.6,1.7-14.5,4.9c-3.9,3.3-6.5,8.3-8,15.1l-20.8-2.6c0.6-9.7,4.7-17.9,12.3-24.6
		C37.4,3.4,47.4,0,59.8,0L59.8,0z" fill-rule="evenodd" clip-rule="evenodd"/>
</g>
</svg>
