<svg xmlns="http://www.w3.org/2000/svg" xmlns:xlink="http://www.w3.org/1999/xlink" viewBox="0 0 120 120" xml:space="preserve">
<g>
	<path d="M49.01,97.23h22.7V120h-22.7V97.23L49.01,97.23z M59.83,0c13.03,0,23.39,3.41,31.1,10.25
		c7.69,6.84,11.55,14.79,11.55,23.86c0,5.02-1.42,9.78-4.24,14.26c-2.83,4.48-8.87,10.58-18.13,18.31c-4.8,4-7.77,7.21-8.92,9.65
		c-1.16,2.42-1.69,6.77-1.58,13.04H49.01c-0.05-2.97-0.08-4.78-0.08-5.43c0-6.7,1.11-12.2,3.32-16.53
		c2.21-4.32,6.62-9.18,13.25-14.58c6.62-5.4,10.58-8.94,11.88-10.62c1.99-2.64,2.99-5.56,2.99-8.75c0-4.43-1.77-8.23-5.29-11.39
		c-3.52-3.16-8.28-4.74-14.26-4.74c-5.76,0-10.58,1.65-14.46,4.94c-3.87,3.29-6.54,8.31-7.99,15.08l-20.83-2.59
		c0.59-9.67,4.7-17.88,12.32-24.63C37.44,3.38,47.44,0,59.83,0L59.83,0z" fill-rule="evenodd" clip-rule="evenodd"/>
</g>
</svg>
