
<svg  xmlns="http://www.w3.org/2000/svg" xmlns:xlink="http://www.w3.org/1999/xlink" 
	 viewBox="0 0 120 120"  xml:space="preserve">

<g>
	<path  d="M45.7,103.4h28.5v2.4c0,1-0.1,2-0.3,3h2.5c0.8,0,1.5,0.7,1.5,1.5c0,0.8-0.7,1.5-1.5,1.5h-3.5
		c-2.3,4.9-7.2,8.3-12.9,8.3s-10.7-3.4-12.9-8.3h-3.5c-0.8,0-1.5-0.7-1.5-1.5c0-0.8,0.7-1.5,1.5-1.5H46c-0.2-0.9-0.3-1.9-0.3-3
		V103.4z M45.7,95.9h28.5v5.2H45.7V95.9L45.7,95.9z M63.7,70.2c2.5,0,4.5,2,4.5,4.5c0,2.5-2,4.5-4.5,4.5c-2.5,0-4.5-2-4.5-4.5
		C59.2,72.2,61.2,70.2,63.7,70.2L63.7,70.2z M65.2,65.2l-1.4,2c-0.6-0.1-1.2,0-1.9,0.1l-1.7-1.7L58,66.8l0.5,2.4
		c-0.4,0.4-0.8,0.9-1.2,1.4l-2.4-0.1l-0.8,2.5l2,1.4c-0.1,0.6,0,1.2,0.1,1.9L54.5,78l1.2,2.4l2.4-0.5c0.4,0.4,0.9,0.8,1.4,1.2
		l-0.1,2.4l2.5,0.8l1.4-2c0.6,0.1,1.2,0,1.9-0.1l1.7,1.7l2.4-1.2l-0.5-2.4c0.4-0.4,0.8-0.9,1.2-1.4l2.4,0.1l0.8-2.5l-2-1.4
		c0.1-0.6,0-1.2-0.1-1.9l1.7-1.7l-1.2-2.4l-2.4,0.5c-0.4-0.4-0.9-0.8-1.4-1.2l0.1-2.4L65.2,65.2L65.2,65.2z M52.9,43.9
		c4.1,0,7.4,3.3,7.4,7.4s-3.3,7.4-7.4,7.4c-4.1,0-7.4-3.3-7.4-7.4S48.8,43.9,52.9,43.9L52.9,43.9z M50.7,35.6l-1.1,3.8
		c-1,0.3-1.9,0.7-2.8,1.2l-3.5-1.9l-3.1,3.1l1.9,3.5C41.7,46.1,41.3,47,41,48l-3.8,1.1v4.3l3.8,1.1c0.3,1,0.7,1.9,1.2,2.8l-1.9,3.5
		l3.1,3.1l3.5-1.9c0.9,0.5,1.8,0.9,2.8,1.2l1.1,3.8h4.3l1.1-3.8c1-0.3,1.9-0.7,2.8-1.2l3.5,1.9l3.1-3.1l-1.9-3.5
		c0.5-0.9,0.9-1.8,1.2-2.8l3.8-1.1v-4.3L64.8,48c-0.3-1-0.7-1.9-1.2-2.8l1.9-3.5l-3.1-3.1L59,40.5c-0.9-0.5-1.8-0.9-2.8-1.2
		l-1.1-3.8H50.7L50.7,35.6z M71.5,32.2c-1-0.1-1.8,0.4-1.8,1.4c0,0.8,0.7,1.6,1.5,1.6c5.7,0.6,10.1,5.3,10.2,11.2
		c0,1.2-0.1,2.3-0.4,3.4c-0.3,0.7,0.2,1.7,1,2c0.8,0.2,1.7-0.4,1.9-1.2c0.4-1.3,0.6-2.7,0.6-4.2C84.4,38.9,78.7,32.8,71.5,32.2
		L71.5,32.2z M60,23.4c15.8,0,31.1,12.4,31.1,29.7c0,21.3-15,26.8-16.7,40.5H45.5c-1.7-13.8-16.7-19.2-16.7-40.5
		C28.8,35.7,44.1,23.4,60,23.4L60,23.4z M96.7,15.3c0.6,0,1.3,0.2,1.8,0.7c1,1.1,1,2.7,0,3.7l-7.4,7.4c-1,1-2.7,1-3.7,0
		c-1-1-1-2.7,0-3.7l7.4-7.4C95.4,15.5,96.1,15.3,96.7,15.3L96.7,15.3z M23.3,15.3c0.6,0,1.3,0.2,1.8,0.7l7.3,7.4c1,1,1,2.7,0,3.7
		c-1,1-2.7,1-3.5,0l-7.4-7.4c-1-1-1-2.7,0-3.7C22,15.5,22.7,15.3,23.3,15.3L23.3,15.3z M60,0c1.4,0,2.6,1.2,2.6,2.6V13
		c0,1.4-1.2,2.6-2.6,2.6c-1.4,0-2.6-1.2-2.6-2.6V2.6C57.4,1.2,58.5,0,60,0L60,0z" fill-rule="evenodd" clip-rule="evenodd"/>
</g>
</svg>
