
<svg  xmlns="http://www.w3.org/2000/svg" xmlns:xlink="http://www.w3.org/1999/xlink" viewBox="0 0 120 120"  xml:space="preserve">

<g>
	<path  d="M117.77,118.03h1.96V120h-1.96V118.03L117.77,118.03z M105.04,80.66H107v1.97h-1.96V80.66L105.04,80.66z
		 M24.75,80.66h1.96v1.97h-1.96V80.66L24.75,80.66z M105.04,74.75H107v1.97h-1.96V74.75L105.04,74.75z M24.75,74.75h1.96v1.97h-1.96
		V74.75L24.75,74.75z M93.29,68.85h1.96v1.97h-1.96V68.85L93.29,68.85z M63.92,53.09c0.16,0.01,0.32,0.02,0.49,0.02h7.34v2.44h0
		c0,3.16-1.37,6.16-3.76,8.21l-2.61,2.25c-0.92-0.74-1.46-1.85-1.46-3.07V53.09z M64.41,42.3h14.2c3.78,0,6.85,3.09,6.85,6.89V75.8
		c0,1.7-0.48,3.36-1.4,4.79l-5.7,8.91c-1.12,1.75-1.71,3.77-1.71,5.85l0,22.69h38.19V120H5.17v-1.97h38.19V95.35
		c0-2.08-0.59-4.1-1.71-5.85l-5.7-8.91c-0.92-1.43-1.4-3.09-1.4-4.79v-8.46c1.04,0.94,2.41,1.51,3.92,1.51
		c2.04,0,3.84-1.05,4.9-2.65c1.05,1.59,2.85,2.65,4.9,2.65c2.04,0,3.84-1.05,4.9-2.65c1.05,1.59,2.85,2.65,4.9,2.65
		c2.05,0,3.85-1.06,4.9-2.66c0.27,0.41,0.58,0.78,0.94,1.11l-1.4,1.2c-2.83,2.43-4.45,5.97-4.45,9.71v4.41H60v-4.41
		c0-3.16,1.37-6.16,3.76-8.21l5.5-4.74c2.83-2.43,4.45-5.97,4.45-9.71v-4.41h-9.3c-2.43,0-4.41-1.99-4.41-4.43
		C60,44.28,61.98,42.3,64.41,42.3L64.41,42.3z M38.46,33.44c2.16,0,3.92,1.76,3.92,3.93v25.57c0,2.17-1.76,3.93-3.92,3.93
		s-3.92-1.76-3.92-3.93V37.38C34.54,35.21,36.3,33.44,38.46,33.44L38.46,33.44z M67.83,31.48c2.16,0,3.92,1.76,3.92,3.93v4.92h-7.34
		c-0.17,0-0.33,0.01-0.49,0.02v-4.94C63.92,33.24,65.67,31.48,67.83,31.48L67.83,31.48z M58.04,31.48c2.16,0,3.92,1.76,3.92,3.93
		v5.41c-2.3,0.97-3.92,3.25-3.92,5.9c0,2.65,1.62,4.93,3.92,5.9v10.33c0,2.17-1.76,3.93-3.92,3.93v0c-2.16,0-3.92-1.76-3.92-3.93
		V35.41C54.13,33.24,55.88,31.48,58.04,31.48L58.04,31.48z M48.25,31.48c2.16,0,3.92,1.76,3.92,3.93v27.54
		c0,2.17-1.76,3.93-3.92,3.93c-2.16,0-3.92-1.76-3.92-3.93V35.41C44.33,33.24,46.09,31.48,48.25,31.48L48.25,31.48z M110.92,18.69
		v1.97h1.96v-1.97H110.92L110.92,18.69z M87.42,18.69v1.97h1.96v-1.97H87.42L87.42,18.69z M30.63,18.69v1.97h1.96v-1.97H30.63
		L30.63,18.69z M7.13,18.69v1.97h1.96v-1.97H7.13L7.13,18.69z M99.17,5.9v3.93h-5.87v5.41c0,2.98,2.42,5.41,5.39,5.41h2.94
		c1.89,0,3.43,1.54,3.43,3.44v3.44h-6.36c-1.89,0-3.43-1.54-3.43-3.44v-0.49h-1.96v0.49c0,2.98,2.42,5.41,5.39,5.41h0.49v3.93h1.96
		v-3.93H107V24.1c0-2.98-2.42-5.41-5.39-5.41h-2.94c-1.89,0-3.43-1.54-3.43-3.44V11.8h6.36c1.89,0,3.43,1.54,3.43,3.44v0.49H107
		v-0.49c0-2.98-2.42-5.41-5.39-5.41h-0.49V5.9H99.17L99.17,5.9z M18.88,5.9v3.93H13v5.41c0,2.98,2.42,5.41,5.39,5.41h2.94
		c1.89,0,3.43,1.54,3.43,3.44v3.44h-6.36c-1.89,0-3.43-1.54-3.43-3.44v-0.49H13v0.49c0,2.98,2.42,5.41,5.39,5.41h0.49v3.93h1.96
		v-3.93h5.87V24.1c0-2.98-2.42-5.41-5.39-5.41h-2.94c-1.89,0-3.43-1.54-3.43-3.44V11.8h6.36c1.89,0,3.43,1.54,3.43,3.44v0.49h1.96
		v-0.49c0-2.98-2.42-5.41-5.39-5.41h-0.49V5.9H18.88L18.88,5.9z M100.15,0c10.8,0,19.58,8.83,19.58,19.67
		c0,8.42-5.31,15.6-12.73,18.4v32.74h-1.96V38.7c-1.57,0.41-3.2,0.65-4.9,0.65c-1.69,0-3.33-0.24-4.9-0.65v26.22h-1.96V38.08
		c-7.42-2.8-12.73-9.98-12.73-18.4C80.56,8.83,89.35,0,100.15,0L100.15,0z M19.85,0c10.8,0,19.58,8.83,19.58,19.67
		c0,8.42-5.31,15.6-12.73,18.4v32.74h-1.96V38.7c-1.57,0.41-3.2,0.65-4.9,0.65c-1.69,0-3.33-0.24-4.9-0.65v55.73H13V38.08
		c-7.42-2.8-12.73-9.98-12.73-18.4C0.27,8.83,9.06,0,19.85,0L19.85,0z" fill-rule="evenodd" clip-rule="evenodd"/>
</g>
</svg>
