
<svg  xmlns="http://www.w3.org/2000/svg" xmlns:xlink="http://www.w3.org/1999/xlink" 
	 viewBox="0 0 120 120"  xml:space="preserve">

<g>
	<path  d="M75.78,46.38h7.11c1.95,0,3.55,1.6,3.55,3.55v2.08c-2.27-0.57-4.65-0.87-7.11-0.87c-2.45,0-4.83,0.3-7.11,0.87
		v-2.08C72.23,47.98,73.83,46.38,75.78,46.38L75.78,46.38z M56.51,21.33l13.73,23.76c-1.13,1.29-1.82,2.99-1.82,4.84v2.73
		L51.87,24.01c-0.75-1.29-1.78-2.34-3.01-3.07c-0.04-0.02-0.07-0.05-0.11-0.07c-1.28-0.74-2.75-1.14-4.29-1.14
		c-1.54,0-3.01,0.4-4.29,1.14l0,0c-1.28,0.74-2.36,1.81-3.13,3.14L6.53,76.81l0,0l0,0.01c-0.78,1.35-1.17,2.81-1.17,4.28
		c0,1.46,0.39,2.93,1.17,4.28c0.78,1.35,1.85,2.42,3.13,3.15l0,0l0.01,0c1.28,0.74,2.75,1.14,4.29,1.14h37.76
		c0.64,1.88,1.46,3.67,2.45,5.35H13.94c-5.02,0-9.56-2.62-12.06-6.96c-2.51-4.34-2.51-9.58,0-13.92l30.5-52.81
		c2.51-4.34,7.05-6.96,12.06-6.96C49.46,14.37,54.01,16.99,56.51,21.33L56.51,21.33z M44.45,69.05c-2.11,0-3.81,1.71-3.81,3.81
		c0,2.11,1.71,3.81,3.81,3.81c2.11,0,3.81-1.71,3.81-3.81C48.26,70.76,46.56,69.05,44.45,69.05L44.45,69.05z M44.45,65.07
		c1.6,0,2.92-1.27,2.98-2.87l0.75-20.83c0.03-0.84-0.25-1.57-0.83-2.17c-0.58-0.6-1.3-0.91-2.14-0.91H43.7
		c-0.84,0-1.56,0.31-2.14,0.91c-0.58,0.6-0.86,1.34-0.83,2.17l0.75,20.83C41.53,63.8,42.85,65.07,44.45,65.07L44.45,65.07z
		 M65.24,54.76L48.58,25.91c-0.42-0.73-0.99-1.31-1.65-1.71c-0.03-0.02-0.06-0.03-0.09-0.05c-0.7-0.4-1.51-0.62-2.39-0.62
		c-0.88,0-1.69,0.22-2.39,0.62l0,0l-0.01,0c-0.7,0.4-1.29,1-1.73,1.76L9.81,78.72l0,0c-0.43,0.75-0.64,1.56-0.64,2.38
		c0,0.82,0.22,1.64,0.65,2.39c0.43,0.75,1.03,1.34,1.74,1.75l0,0c0.7,0.4,1.51,0.62,2.39,0.62H50.7c-0.35-1.8-0.53-3.67-0.53-5.57
		C50.16,69.3,56.25,59.72,65.24,54.76L65.24,54.76z M79.33,54.94c-14.01,0-25.36,11.35-25.36,25.34c0,14,11.35,25.34,25.36,25.34
		c14.01,0,25.36-11.35,25.36-25.34C104.69,66.29,93.34,54.94,79.33,54.94L79.33,54.94z M79.33,93.8c-3.73,0-7.11-1.51-9.56-3.96
		c-2.45-2.44-3.96-5.82-3.96-9.55c0-1.05-0.85-1.9-1.9-1.9c-1.05,0-1.9,0.85-1.9,1.9c0,4.78,1.94,9.11,5.07,12.25
		c3.14,3.13,7.47,5.07,12.25,5.07c1.05,0,1.9-0.85,1.9-1.9C81.24,94.65,80.39,93.8,79.33,93.8L79.33,93.8z M110.08,25.11
		c0,1.05-0.85,1.9-1.9,1.9c-1.05,0-1.9-0.85-1.9-1.9v-3.9c0-1.05,0.85-1.9,1.9-1.9c1.05,0,1.9,0.85,1.9,1.9V25.11z M102.59,27.24
		c0.91,0.53,1.22,1.69,0.69,2.6c-0.53,0.91-1.69,1.22-2.6,0.69l-3.38-1.95c-0.91-0.53-1.22-1.69-0.69-2.6
		c0.53-0.91,1.69-1.22,2.6-0.69L102.59,27.24z M113.77,38.08c-0.91-0.53-1.22-1.69-0.69-2.6c0.53-0.91,1.69-1.22,2.6-0.69l3.38,1.95
		c0.91,0.53,1.22,1.69,0.69,2.6c-0.53,0.91-1.69,1.22-2.6,0.69L113.77,38.08z M115.67,30.53c-0.91,0.53-2.07,0.22-2.6-0.69
		c-0.53-0.91-0.22-2.07,0.69-2.6l3.38-1.95c0.91-0.53,2.07-0.22,2.6,0.69c0.53,0.91,0.22,2.07-0.69,2.6L115.67,30.53z M106.27,32.66
		c0,3.89-2.92,4.69-6.66,4.69c-1.64,0-3.41-0.14-5.19-0.27c-1.9-0.15-3.81-0.29-5.6-0.29v0.01c-5.12,0-9.46,1.06-10.89,5.77h4.48
		c1.34-1.58,3.71-1.98,6.42-1.98v0.01c1.71,0,3.52,0.14,5.32,0.28c1.88,0.14,3.74,0.29,5.47,0.29c5.87,0,10.47-1.46,10.47-8.5
		c0-1.05-0.85-1.9-1.9-1.9C107.12,30.76,106.27,31.61,106.27,32.66L106.27,32.66z" fill-rule="evenodd" clip-rule="evenodd"/>
</g>
</svg>
