
<svg  xmlns="http://www.w3.org/2000/svg" xmlns:xlink="http://www.w3.org/1999/xlink" 
	 viewBox="0 0 120 120"  xml:space="preserve">

<g>
	<path  d="M1.24,44.67h10.91L46.6,90.46L1.24,44.67L1.24,44.67z M78.61,44.62h8.66c1.87,0.76,3.3,2.19,4.02,4.05
		l1.05,2.77l1.05-2.77c0.72-1.86,2.2-3.34,4.02-4.05h9.09l-43.3,56.57L78.61,44.62L78.61,44.62z M108.95,44.57h10.48L74.07,90.41
		L108.95,44.57L108.95,44.57z M43.54,44.57h11.15l0.1,0.05c1.91,0.72,3.4,2.24,4.11,4.1l1.05,2.77L61,48.72
		c0.72-1.91,2.25-3.39,4.11-4.1l0.1-0.05h11.24L60,104.76L43.54,44.57L43.54,44.57z M14.64,44.57h7.89
		c1.87,0.72,3.35,2.19,4.07,4.05l1.05,2.77l1.05-2.77c0.77-1.86,2.2-3.34,4.07-4.05h8.61l15.26,55.76L14.64,44.57L14.64,44.57z
		 M92.34,39.8c0.86,1.57,2.15,2.86,3.73,3.72c-1.63,0.86-2.92,2.15-3.73,3.72c-0.86-1.62-2.15-2.91-3.73-3.72
		C90.24,42.66,91.53,41.37,92.34,39.8L92.34,39.8z M59.95,39.8c0.81,1.62,2.11,2.91,3.73,3.72c-1.63,0.86-2.92,2.15-3.73,3.72
		c-0.86-1.62-2.15-2.91-3.73-3.72C57.85,42.66,59.14,41.37,59.95,39.8L59.95,39.8z M27.66,39.8c0.81,1.57,2.11,2.86,3.73,3.72
		c-1.63,0.86-2.92,2.15-3.73,3.72c-0.86-1.62-2.15-2.91-3.73-3.72C25.55,42.66,26.84,41.37,27.66,39.8L27.66,39.8z M93.11,15.24
		h6.56L120,42.52h-11.29L93.11,15.24L93.11,15.24z M73.01,15.24h17.51l15.65,27.28H97.8l-0.24-0.1c-1.91-0.72-3.4-2.24-4.11-4.1
		l-1.05-2.77l-1.05,2.77c-0.72,1.91-2.25,3.39-4.11,4.1l-0.24,0.1h-8.33L73.01,15.24L73.01,15.24z M49.14,15.24h21.53l5.55,27.19
		H64.98c-1.82-0.76-3.3-2.19-4.02-4.05L59.9,35.6l-1.05,2.77c-0.72,1.86-2.2,3.34-4.02,4.05H43.54L49.14,15.24L49.14,15.24z
		 M29.57,15.24h17.42l-5.65,27.28h-8.33l-0.19-0.1c-1.91-0.72-3.4-2.24-4.11-4.1l-1.05-2.77l-1.05,2.77
		c-0.72,1.91-2.25,3.39-4.11,4.1l-0.19,0.1h-8.33L29.57,15.24L29.57,15.24z M20.33,15.24h6.7L11.39,42.57L0,42.52L20.33,15.24
		L20.33,15.24z" fill-rule="evenodd" clip-rule="evenodd"/>
</g>
</svg>
