
<svg  xmlns="http://www.w3.org/2000/svg" xmlns:xlink="http://www.w3.org/1999/xlink" 
	 viewBox="0 0 120 120"  xml:space="preserve">

<g>
	<path d="M64.51,53.33c-1.92,0-3.48,1.56-3.48,3.48c0,1.92,1.56,3.48,3.48,3.48c1.92,0,3.48-1.56,3.48-3.48
		C67.98,54.88,66.43,53.33,64.51,53.33L64.51,53.33z M60,49.67c5.7,0,10.33,4.63,10.33,10.34c0,5.71-4.62,10.34-10.33,10.34
		c-5.7,0-10.33-4.63-10.33-10.34C49.68,54.29,54.3,49.67,60,49.67L60,49.67z M62.59,37.8c-0.43,0.07-0.83,0.18-1.21,0.29
		c-0.5,0.14-0.96,0.28-1.38,0.28c-0.43,0-0.89-0.14-1.38-0.28c-0.78-0.21-1.63-0.43-2.52-0.28c-0.92,0.14-1.67,0.67-2.31,1.14
		c-0.43,0.32-0.82,0.57-1.17,0.71c-0.35,0.14-0.85,0.18-1.35,0.21c-0.78,0.07-1.7,0.14-2.48,0.6c-0.82,0.5-1.31,1.24-1.77,1.88
		c-0.28,0.43-0.57,0.82-0.85,1.07c-0.32,0.25-0.75,0.46-1.21,0.68c-0.71,0.32-1.53,0.71-2.13,1.42c-0.6,0.71-0.82,1.56-1.03,2.34
		c-0.14,0.5-0.25,0.96-0.46,1.31c-0.18,0.36-0.53,0.68-0.89,1.03c-0.57,0.53-1.21,1.17-1.53,2.06c-0.32,0.89-0.21,1.78-0.14,2.56
		c0.07,0.5,0.11,0.99,0.04,1.39c-0.07,0.36-0.28,0.78-0.5,1.24c-0.35,0.71-0.75,1.53-0.75,2.49c0,0.96,0.39,1.78,0.75,2.49
		c0.21,0.46,0.43,0.89,0.5,1.24c0.07,0.39,0,0.89-0.04,1.39c-0.07,0.82-0.18,1.71,0.14,2.56c0.32,0.85,0.96,1.49,1.53,2.06
		c0.35,0.36,0.71,0.71,0.89,1.03c0.21,0.36,0.32,0.82,0.46,1.31c0.21,0.78,0.43,1.63,1.03,2.34c0.6,0.71,1.42,1.1,2.13,1.42
		c0.46,0.21,0.92,0.43,1.21,0.68c0.28,0.25,0.57,0.64,0.85,1.07c0.46,0.67,0.96,1.42,1.77,1.88c0.82,0.46,1.7,0.53,2.48,0.6
		c0.5,0.04,0.99,0.07,1.35,0.21c0.35,0.14,0.75,0.43,1.17,0.71c0.64,0.46,1.38,0.96,2.31,1.14c0.89,0.18,1.77-0.07,2.52-0.28
		c0.5-0.14,0.96-0.28,1.38-0.28c0.43,0,0.89,0.14,1.38,0.28c0.6,0.18,1.24,0.36,1.92,0.36c0.18,0,0.39,0,0.6-0.07
		c0.92-0.14,1.67-0.67,2.31-1.14c0.43-0.32,0.82-0.57,1.17-0.71s0.85-0.18,1.35-0.21c0.78-0.07,1.7-0.14,2.48-0.6
		c0.82-0.5,1.31-1.24,1.77-1.88c0.28-0.43,0.57-0.82,0.85-1.07c0.32-0.25,0.75-0.46,1.21-0.68c0.71-0.36,1.53-0.71,2.13-1.42
		c0.6-0.71,0.82-1.56,1.03-2.34c0.14-0.5,0.25-0.96,0.46-1.31c0.18-0.36,0.53-0.67,0.89-1.03c0.57-0.53,1.21-1.17,1.53-2.06
		c0.28-0.89,0.21-1.78,0.14-2.56c-0.07-0.5-0.11-0.99-0.04-1.39c0.07-0.36,0.28-0.78,0.5-1.24c0.36-0.71,0.75-1.53,0.75-2.49
		c0-0.96-0.39-1.78-0.75-2.49c-0.21-0.46-0.43-0.89-0.5-1.24c-0.07-0.39,0-0.89,0.04-1.39c0.07-0.82,0.18-1.7-0.14-2.56
		c-0.32-0.85-0.96-1.49-1.53-2.06c-0.35-0.36-0.71-0.71-0.89-1.03c-0.21-0.36-0.32-0.82-0.46-1.31c-0.21-0.78-0.43-1.63-1.03-2.34
		c-0.6-0.71-1.42-1.1-2.13-1.42c-0.46-0.21-0.92-0.43-1.21-0.68c-0.28-0.25-0.57-0.64-0.85-1.07c-0.46-0.67-0.96-1.42-1.77-1.88
		c-0.82-0.46-1.7-0.53-2.48-0.6c-0.5-0.04-0.99-0.07-1.35-0.21c-0.35-0.14-0.75-0.43-1.17-0.71c-0.64-0.46-1.38-0.96-2.31-1.14
		C63.46,37.71,63.02,37.73,62.59,37.8L62.59,37.8z M59.14,30.86C77.31,30.45,98.28,37.53,120,60C56.74,125.37,0,60.47,0,60
		C0,59.68,24.46,31.63,59.14,30.86L59.14,30.86z" fill-rule="evenodd" clip-rule="evenodd"/>
</g>
</svg>
