
<svg xmlns="http://www.w3.org/2000/svg" xmlns:xlink="http://www.w3.org/1999/xlink" 
	 viewBox="0 0 120 120"  xml:space="preserve">

<g>
	<path class="st0" d="M68.01,74.19c0.93-0.19,2.05,0.38,2.24,1.31l2.05,8.25c0.19,0.94-0.37,2.06-1.31,2.25
		c-0.93,0.19-2.05-0.38-2.24-1.31l-2.05-8.25C66.51,75.5,67.07,74.38,68.01,74.19L68.01,74.19z M76.22,66.88l8.21,2.06
		c0.93,0.19,1.68,1.31,1.31,2.25c-0.19,0.94-1.31,1.69-2.24,1.31l-8.21-2.06c-0.93-0.19-1.68-1.31-1.31-2.25
		C74.17,67.25,75.29,66.5,76.22,66.88L76.22,66.88z M63.34,63.69l4.85,0.19l-4.48,4.5L63.34,63.69L63.34,63.69z M36.23,61.39
		c3.05-0.16,6.13,0.35,9,1.55l-9.15,9.19c-2.43,0.38-4.67,1.31-6.53,3.19L13.87,91.06c-4.29,4.31-4.29,11.06,0,15.37
		c4.29,4.31,11.2,4.12,15.31,0l15.68-15.75c1.68-1.87,2.8-4.12,2.99-6.56c-0.56,0.56,8.96-9,9.15-9.19l0,0
		c3.17,7.87,1.49,16.87-4.48,23.06l-15.68,15.75c-8.21,8.25-21.84,8.44-30.24,0c-8.4-8.44-8.4-21.93,0-30.37l15.68-15.75
		C26.12,63.76,31.14,61.65,36.23,61.39L36.23,61.39z M53.07,60.5l0.37,6.19l6.16,0.38l-4.29,4.31c-1.68,1.69,5.97-6-16.05,16.12
		c-1.87,1.87-4.85,1.87-6.53,0c-1.87-1.87-1.87-4.87,0-6.56L53.07,60.5z M56.24,51.88l0.19,4.69h0l0,0l-4.67-0.19l0,0l0,0
		L56.24,51.88L56.24,51.88z M36.64,47.76l8.21,2.06c0.93,0.19,1.68,1.31,1.31,2.25c-0.37,0.94-1.31,1.5-2.24,1.31l-8.21-2.06
		c-0.93-0.19-1.68-1.31-1.31-2.25C34.59,48.13,35.71,47.38,36.64,47.76L36.64,47.76z M48.96,34.26c0.93-0.19,2.05,0.38,2.24,1.31
		l2.05,8.25c0.19,0.94-0.37,2.06-1.31,2.25c-1.12,0.38-2.05-0.19-2.24-1.31l-2.05-8.25C47.47,35.57,48.03,34.45,48.96,34.26
		L48.96,34.26z M83.85,31.35c1.19,0,2.36,0.47,3.2,1.41c2.05,1.88,2.05,4.69,0.19,6.56l0,0L71.18,55.44l-4.29,4.31l-0.37-6.19
		l-6.35-0.38l20.35-20.43C81.44,31.82,82.66,31.35,83.85,31.35L83.85,31.35z M98.43,0c5.46,0,10.92,2.11,15.12,6.33l0,0
		c8.21,8.44,8.21,22.12,0,30.18L97.87,52.25c-6.16,6.19-15.31,7.69-22.96,4.69l9.15-9.19c2.43-0.19,4.67-1.12,6.53-3l15.68-15.75
		c4.29-4.31,4.29-11.06,0-15.37c-4.29-4.31-11.01-4.31-15.31,0L75.28,29.38c-1.87,1.87-2.99,4.12-3.17,6.56l-9.15,9.19
		c-3.17-7.68-1.49-16.87,4.67-23.06L83.31,6.33C87.51,2.11,92.97,0,98.43,0L98.43,0z" fill-rule="evenodd" clip-rule="evenodd"/>
</g>
</svg>
